<svg width="20" height="18" viewBox="0 0 20 18" fill="none" xmlns="http://www.w3.org/2000/svg">
<path d="M19.08 4.0001C18.9072 3.70072 18.6598 3.45123 18.3618 3.27597C18.0639 3.10071 17.7256 3.00566 17.38 3.0001H4.58L4 0.740098C3.9414 0.521936 3.81066 0.330042 3.62908 0.19567C3.44749 0.061298 3.22576 -0.00763504 3 9.81991e-05H1C0.734784 9.81991e-05 0.48043 0.105455 0.292893 0.292991C0.105357 0.480528 0 0.734882 0 1.0001C0 1.26531 0.105357 1.51967 0.292893 1.7072C0.48043 1.89474 0.734784 2.0001 1 2.0001H2.24L5 12.2601C5.0586 12.4783 5.18934 12.6702 5.37092 12.8045C5.55251 12.9389 5.77424 13.0078 6 13.0001H15C15.1847 12.9995 15.3656 12.9479 15.5227 12.8508C15.6798 12.7537 15.8069 12.615 15.89 12.4501L19.17 5.8901C19.3122 5.59211 19.3783 5.26357 19.3626 4.93378C19.3469 4.604 19.2498 4.28323 19.08 4.0001Z" fill="white"/>
<path d="M5.5 18C6.32843 18 7 17.3284 7 16.5C7 15.6716 6.32843 15 5.5 15C4.67157 15 4 15.6716 4 16.5C4 17.3284 4.67157 18 5.5 18Z" fill="white"/>
<path d="M15.5 18C16.3284 18 17 17.3284 17 16.5C17 15.6716 16.3284 15 15.5 15C14.6716 15 14 15.6716 14 16.5C14 17.3284 14.6716 18 15.5 18Z" fill="white"/>
</svg>
